# xmcd
#
# Track frame offsets: 
#        150
#        13547
#        26064
#        40741
#        54375
#        64632
#        76713
#        88793
#        102284
#        114059
#        128601
#        142719
#        153368
#        165886
#        178716
#        192037
#        204862
#        217583
#        230206
#        242621
#
# Disc length: 3401 seconds
#
# Revision: 0
# Processed by: cddbd v1.5.2PL0 Copyright (c) Steve Scherf et al.
# Submitted via: ExactAudioCopyFreeDBPlugin 1.0
#
DISCID=e50d4714
DTITLE=Various Artist - The Super Rare Doo Wop Box [Rock Beat box set
DTITLE=]
DYEAR=2015
DGENRE=Rhythm and Blues
TTITLE0=The Harptones - Loving a Girl Like You
TTITLE1=The Keynotes - Really Wish You Were Here
TTITLE2=The Mello-Harps - Love is a Vow
TTITLE3=The Orchids - Newly Wed
TTITLE4=The Vocaltones - Darling (You Know I Love You)
TTITLE5=The Lyres - Ship of Love
TTITLE6=The Concords - Monticello
TTITLE7=The Five Diamonds - Ten Commandments of Love
TTITLE8=The Harptones - It All Depends on You
TTITLE9=The Orchids - You Said You Loved Me
TTITLE10=The Solitaires - I Don't Stand a Ghost of a Chance
TTITLE11=The Californians - My Angel
TTITLE12=The Inspirators - If Loving You is Wrong
TTITLE13=The Scarlets - Love Doll
TTITLE14=The Four Fellows - In the Rain
TTITLE15=The Pyramids - And I Need You
TTITLE16=The Heartbeats Quintet - Tormented (with The Russell Jacquet 
TTITLE16=Orchestra)
TTITLE17=The Kidds - Are You Forgetting Me
TTITLE18=The Five Stars - We Danced in the Moonlight
TTITLE19=The Sequins - Why Can't You Treat Me Right
EXTD=
EXTT0=
EXTT1=
EXTT2=
EXTT3=
EXTT4=
EXTT5=
EXTT6=
EXTT7=
EXTT8=
EXTT9=
EXTT10=
EXTT11=
EXTT12=
EXTT13=
EXTT14=
EXTT15=
EXTT16=
EXTT17=
EXTT18=
EXTT19=
PLAYORDER=
